<?xml version="1.0" standalone="no"?>
<!DOCTYPE svg PUBLIC "-//W3C//DTD SVG 20010904//EN"
 "http://www.w3.org/TR/2001/REC-SVG-20010904/DTD/svg10.dtd">
<svg version="1.0" xmlns="http://www.w3.org/2000/svg"
 width="500.000000pt" height="500.000000pt" viewBox="0 0 500.000000 500.000000"
 preserveAspectRatio="xMidYMid meet">
<metadata>
Created by potrace 1.14, written by Peter Selinger 2001-2017
</metadata>
<g transform="translate(0.000000,500.000000) scale(0.100000,-0.100000)"
fill="#000000" stroke="none">
<path d="M2313 4760 c-4 -5 -27 -6 -116 -9 -21 -1 -36 -5 -33 -9 2 -4 -5 -8
-17 -8 -12 -1 -42 -4 -67 -8 -25 -5 -52 -9 -60 -10 -9 -1 -21 -5 -28 -10 -6
-4 -12 -5 -12 -1 0 3 -9 1 -20 -5 -10 -6 -33 -12 -51 -14 -17 -2 -34 -8 -38
-13 -3 -5 -16 -8 -29 -7 -12 1 -39 -7 -60 -17 -20 -10 -48 -20 -62 -21 -14 -2
-27 -6 -30 -9 -5 -5 -97 -49 -104 -49 -2 0 -21 -8 -42 -17 -22 -9 -42 -16 -46
-15 -5 1 -8 -2 -8 -6 0 -9 -54 -37 -56 -30 -1 1 -11 -6 -23 -16 -12 -11 -21
-15 -21 -10 0 5 -4 4 -8 -1 -4 -6 -20 -17 -36 -25 -17 -8 -41 -25 -54 -37 -14
-13 -28 -20 -33 -17 -5 3 -9 0 -9 -7 0 -7 -3 -10 -6 -7 -3 4 -14 -2 -25 -13
-11 -11 -24 -17 -29 -14 -6 4 -10 -1 -10 -9 0 -9 -7 -16 -15 -16 -8 0 -15 -4
-15 -10 0 -5 -5 -10 -10 -10 -6 0 -24 -12 -40 -27 -16 -16 -44 -40 -62 -55
-18 -15 -44 -36 -57 -47 -13 -11 -32 -23 -43 -27 -11 -3 -18 -8 -15 -10 2 -2
-24 -33 -57 -68 -80 -84 -160 -172 -163 -180 -2 -3 -3 -11 -3 -17 0 -5 -4 -7
-10 -4 -5 3 -10 -1 -10 -9 0 -9 -4 -16 -10 -16 -5 0 -10 -7 -10 -17 0 -9 -3
-13 -7 -10 -5 6 -73 -86 -73 -100 0 -3 -10 -19 -22 -36 -13 -18 -21 -38 -20
-45 2 -8 -1 -12 -5 -9 -8 5 -81 -123 -75 -131 2 -1 -4 -10 -13 -18 -8 -9 -13
-20 -10 -25 4 -5 1 -9 -4 -9 -6 0 -11 -4 -11 -9 0 -5 -10 -30 -22 -57 -12 -27
-23 -52 -24 -56 -1 -5 -3 -11 -4 -15 -1 -5 -2 -11 -1 -15 0 -5 -4 -8 -10 -8
-5 0 -7 -4 -4 -10 3 -5 1 -10 -5 -10 -6 0 -9 -4 -5 -9 3 -5 1 -12 -5 -16 -6
-4 -8 -11 -5 -16 4 -5 1 -9 -5 -9 -6 0 -8 -4 -5 -10 3 -5 3 -16 -2 -22 -4 -7
-9 -20 -11 -28 -4 -19 -10 -43 -12 -50 -1 -3 -2 -8 -1 -12 0 -5 -4 -8 -10 -8
-5 0 -8 -4 -5 -9 4 -5 1 -22 -5 -38 -11 -25 -20 -68 -22 -100 0 -7 -3 -13 -7
-13 -3 0 -7 -10 -7 -22 -4 -54 -9 -78 -15 -78 -5 0 -8 -5 -8 -11 0 -5 5 -7 12
-3 7 5 8 3 2 -7 -5 -8 -10 -25 -11 -39 -2 -14 -5 -47 -9 -75 -3 -27 -6 -57 -6
-65 0 -8 -5 -21 -11 -27 -6 -9 -6 -13 1 -13 5 0 8 -16 6 -37 -5 -49 -5 -72 -1
-103 2 -14 -1 -31 -7 -38 -6 -8 -6 -16 0 -20 5 -4 9 -37 9 -74 0 -39 4 -68 10
-68 6 0 3 -5 -5 -10 -8 -5 -10 -10 -5 -10 6 0 11 -12 10 -27 0 -16 4 -31 10
-35 6 -5 5 -8 -3 -8 -9 0 -10 -5 -3 -18 6 -11 10 -27 9 -38 0 -10 3 -32 6 -49
4 -16 9 -41 11 -55 2 -14 4 -25 5 -25 3 0 16 -60 19 -93 0 -7 6 -10 12 -6 8 5
9 2 2 -11 -7 -12 -5 -28 8 -54 9 -20 15 -39 12 -44 -2 -4 1 -14 7 -22 7 -8 9
-15 5 -15 -4 0 -2 -7 5 -15 6 -8 9 -19 6 -24 -4 -5 -2 -12 3 -15 5 -3 17 -31
26 -61 10 -32 22 -52 28 -48 6 4 8 -2 5 -15 -4 -12 -2 -22 4 -22 5 0 6 -4 3
-10 -3 -5 -1 -10 4 -10 6 0 11 -9 11 -20 0 -11 5 -20 11 -20 5 0 7 -4 4 -10
-3 -5 -2 -10 4 -10 6 0 8 -6 5 -13 -2 -7 4 -22 15 -34 11 -11 17 -24 14 -27
-4 -3 -1 -6 6 -6 7 0 9 -4 6 -10 -3 -5 -2 -10 3 -10 6 0 12 -10 16 -23 3 -12
13 -31 23 -43 10 -11 19 -26 21 -33 1 -7 9 -20 17 -28 8 -8 15 -19 15 -24 0
-9 8 -21 38 -54 6 -7 12 -18 12 -24 0 -6 5 -11 12 -11 6 0 9 -3 5 -6 -3 -4 -1
-12 6 -19 7 -6 23 -27 37 -45 14 -18 32 -41 40 -50 8 -10 31 -37 49 -60 19
-24 41 -48 48 -55 6 -7 9 -16 5 -20 -4 -5 -2 -5 5 -1 12 6 83 -59 83 -76 0 -4
4 -8 10 -8 5 0 27 -18 49 -40 22 -22 42 -40 46 -40 4 0 20 -13 35 -30 15 -16
33 -30 39 -30 6 0 16 -9 23 -20 7 -11 18 -20 25 -20 7 0 23 -11 37 -25 14 -14
32 -25 40 -25 8 0 24 -12 36 -27 12 -16 23 -26 23 -25 4 7 57 -22 57 -30 0 -5
4 -7 9 -4 5 3 14 -1 21 -9 7 -8 16 -15 21 -15 5 0 27 -11 48 -24 21 -14 42
-22 45 -19 3 4 6 1 6 -6 0 -7 6 -11 14 -8 8 3 17 -1 20 -9 3 -9 10 -13 15 -10
5 3 14 -1 21 -10 7 -8 19 -13 26 -10 8 3 20 -1 28 -9 8 -8 21 -15 28 -15 8 0
19 -5 26 -12 7 -7 12 -9 12 -5 0 4 10 2 23 -5 12 -6 27 -13 32 -14 6 -1 29 -9
53 -18 23 -8 42 -13 42 -10 0 3 7 -1 15 -10 9 -8 22 -13 30 -9 9 3 21 1 28 -5
6 -5 26 -11 42 -13 17 -2 35 -6 40 -10 6 -4 29 -9 53 -13 24 -3 48 -9 55 -13
6 -4 29 -8 52 -9 47 -3 65 -7 83 -17 7 -5 12 -3 12 3 0 7 6 8 18 2 9 -5 45 -9
80 -8 34 1 62 -3 62 -8 0 -5 3 -6 6 -3 4 3 15 2 25 -4 15 -8 17 -6 12 7 -5 13
-3 15 13 7 22 -11 184 -11 202 1 7 4 12 2 12 -4 0 -7 6 -8 18 -2 9 4 43 8 75
7 31 0 57 2 57 5 0 3 10 7 23 8 12 0 41 2 64 4 24 2 43 7 43 11 0 5 5 5 10 2
6 -3 10 0 10 7 0 9 3 9 10 -2 7 -11 10 -11 10 -2 0 7 4 11 8 8 7 -4 28 0 102
19 8 2 25 4 38 4 13 1 20 5 17 11 -5 8 30 13 61 9 4 0 10 4 13 10 4 6 19 12
34 13 15 1 27 5 27 9 0 3 6 6 13 6 17 1 41 7 47 13 12 12 52 31 46 22 -3 -6
15 0 41 13 25 13 51 21 56 18 6 -3 7 -2 4 3 -3 6 16 19 44 29 27 11 49 23 49
27 0 4 3 8 8 7 15 -2 52 14 52 22 0 5 7 9 15 9 9 0 18 7 21 15 4 8 10 13 15
10 4 -3 31 10 59 30 27 19 55 35 60 35 6 0 8 5 4 12 -5 7 -2 9 8 6 8 -4 20 2
27 14 7 11 15 17 18 14 3 -3 11 0 18 7 6 7 24 21 40 32 15 11 38 29 50 40 13
11 42 36 65 55 24 19 63 54 87 78 23 23 48 42 55 42 6 0 9 3 5 6 -8 8 16 33
26 27 4 -2 7 2 7 9 0 7 18 30 40 50 22 21 37 38 33 38 -3 0 4 9 17 20 13 11
20 20 17 20 -4 0 2 9 13 20 11 11 20 25 20 30 0 6 7 10 16 10 8 0 13 4 9 10
-3 5 3 18 14 29 11 11 17 22 14 25 -3 3 2 8 11 12 9 3 16 13 16 21 0 8 5 11
11 7 7 -4 10 -1 7 7 -2 7 4 22 14 33 10 11 18 26 18 33 0 7 3 13 8 13 4 0 16
18 26 40 11 23 24 37 30 33 6 -3 8 -3 4 2 -4 4 -2 15 5 23 10 13 9 14 -3 7 -8
-4 -5 3 8 17 12 13 19 28 15 31 -3 4 -1 7 5 7 7 0 11 3 10 8 -1 4 6 23 17 42
11 19 20 37 20 40 1 3 5 14 10 25 44 110 57 143 60 159 2 10 9 24 16 32 6 8 9
23 6 34 -3 11 -1 18 4 14 8 -5 13 12 12 44 -1 6 2 12 6 12 8 0 9 3 13 55 2 17
8 36 15 43 6 7 10 21 8 31 -2 11 3 25 10 31 11 9 12 17 5 30 -6 11 -6 21 -2
24 5 3 9 20 10 39 1 19 6 46 12 61 7 20 7 25 -2 20 -7 -4 -8 -3 -4 5 10 16 17
56 20 121 1 31 6 62 11 69 5 10 4 12 -3 7 -8 -4 -12 0 -12 11 0 10 -4 14 -8 8
-9 -13 -42 -15 -42 -3 0 6 -6 5 -15 -2 -8 -7 -15 -8 -15 -3 0 5 -9 9 -20 9
-11 0 -20 -3 -20 -7 0 -8 -27 -6 -35 3 -4 3 -20 2 -36 -2 -16 -5 -31 -5 -33
-1 -6 9 -68 7 -84 -3 -7 -4 -12 -3 -12 2 0 10 -30 9 -48 -2 -6 -4 -12 -3 -12
2 0 5 -7 9 -15 9 -8 0 -15 -3 -15 -6 0 -3 -11 -6 -25 -6 -14 0 -25 4 -25 9 0
5 -7 3 -15 -4 -12 -10 -15 -10 -15 0 0 10 -3 10 -15 0 -11 -9 -15 -9 -15 -1 0
9 -5 9 -20 1 -13 -7 -20 -7 -20 -1 0 7 -9 7 -25 1 -15 -6 -26 -6 -30 1 -4 5
-12 6 -18 2 -18 -12 -81 -10 -89 2 -5 7 -8 7 -8 -1 0 -7 -25 -10 -66 -10 -36
1 -69 -3 -72 -9 -8 -12 -9 -18 -17 -97 -3 -34 -8 -64 -10 -68 -2 -3 -6 -18 -9
-33 -4 -15 -9 -39 -12 -54 -3 -15 -10 -33 -15 -40 -6 -7 -8 -17 -4 -23 3 -5 2
-10 -4 -10 -5 0 -8 -9 -6 -20 2 -11 0 -20 -5 -20 -5 0 -6 -7 -3 -17 4 -11 3
-14 -5 -9 -8 5 -12 0 -12 -13 0 -29 -2 -34 -17 -49 -7 -8 -11 -18 -8 -23 4 -5
1 -9 -4 -9 -6 0 -10 -3 -9 -7 2 -10 -16 -48 -41 -88 -10 -16 -16 -33 -14 -38
2 -4 -3 -10 -11 -13 -9 -3 -13 -10 -10 -15 3 -5 0 -9 -5 -9 -6 0 -11 -7 -11
-15 0 -8 -5 -15 -11 -15 -5 0 -8 -4 -5 -9 3 -5 -1 -12 -10 -15 -9 -4 -14 -9
-11 -13 4 -3 -6 -17 -21 -29 -15 -13 -24 -24 -20 -24 20 0 -208 -231 -235
-237 -4 -1 -21 -16 -38 -33 -17 -16 -37 -30 -45 -30 -8 0 -17 -7 -20 -15 -4
-8 -12 -15 -20 -15 -8 0 -14 -4 -14 -10 0 -5 -3 -9 -7 -8 -5 1 -25 -8 -45 -21
-20 -12 -39 -21 -41 -19 -2 2 -11 -5 -21 -15 -10 -9 -26 -17 -37 -17 -10 0
-19 -4 -19 -10 0 -5 -9 -10 -20 -10 -11 0 -20 -4 -20 -10 0 -5 -3 -9 -7 -8 -9
2 -83 -21 -98 -31 -5 -4 -23 -8 -40 -10 -16 -2 -32 -6 -35 -10 -6 -7 -42 -14
-77 -15 -13 0 -23 -3 -23 -6 0 -7 -53 -12 -122 -13 -21 0 -35 -3 -33 -7 6 -9
-27 -6 -44 5 -10 5 -12 4 -7 -3 5 -8 0 -12 -13 -12 -12 0 -21 6 -21 13 0 7 -3
8 -8 2 -9 -13 -92 -16 -92 -3 0 6 -6 6 -14 -1 -8 -7 -17 -8 -20 -3 -2 4 -37 9
-77 10 -40 1 -75 5 -78 9 -6 8 -10 9 -62 11 -16 1 -28 6 -25 11 3 4 -6 7 -19
5 -14 -1 -27 2 -31 7 -3 5 -9 7 -14 4 -5 -3 -19 -1 -30 5 -12 6 -31 13 -42 15
-12 3 -24 8 -27 13 -3 4 -13 7 -21 7 -8 -1 -24 5 -36 12 -11 7 -24 10 -27 7
-4 -4 -9 0 -13 9 -3 9 -12 13 -20 10 -8 -3 -14 -1 -14 4 0 5 -16 15 -35 22
-19 7 -35 17 -35 22 0 6 -4 7 -10 4 -5 -3 -10 -1 -10 4 0 6 -3 10 -7 9 -8 -3
-53 26 -83 54 -10 9 -21 14 -24 10 -3 -3 -6 0 -6 6 0 7 -5 12 -11 12 -7 0 -24
12 -39 28 -15 15 -48 46 -73 68 -26 23 -43 44 -40 48 3 3 0 6 -8 6 -8 0 -21
10 -29 21 -8 12 -26 32 -40 45 -14 13 -22 24 -18 24 4 0 -3 12 -16 26 -47 52
-56 64 -56 74 0 5 -6 13 -14 17 -8 4 -16 15 -18 23 -2 8 -11 23 -20 34 -10 10
-15 23 -12 28 3 4 1 8 -4 8 -6 0 -18 20 -28 44 -10 24 -22 42 -26 40 -5 -3 -8
6 -8 20 0 14 -5 26 -11 26 -5 0 -8 4 -4 9 3 5 1 12 -5 16 -6 4 -8 11 -5 16 4
5 2 9 -3 9 -9 0 -26 55 -23 72 0 5 -4 8 -10 8 -6 0 -8 9 -4 21 5 15 4 19 -4
15 -7 -5 -11 2 -11 17 0 14 -6 42 -13 63 -7 22 -12 53 -12 71 1 19 -3 29 -9
26 -5 -4 -7 0 -3 10 3 9 1 18 -6 21 -9 3 -8 5 1 5 8 1 10 6 6 13 -10 15 -12
318 -3 318 3 0 5 12 3 27 -1 15 0 31 3 37 4 5 8 26 9 45 2 20 7 48 11 61 5 14
9 34 9 45 -1 11 3 23 7 26 4 3 10 19 13 35 3 16 11 32 17 36 9 5 8 8 -3 8 -13
0 -13 1 0 10 8 5 11 12 7 16 -4 4 1 13 11 21 11 9 11 12 2 7 -12 -6 -13 -4 -2
7 6 7 12 21 12 30 0 9 7 22 15 29 8 7 13 16 10 20 -3 5 2 16 11 24 8 9 12 16
8 16 -3 0 -1 7 6 15 7 8 10 15 6 15 -3 0 2 9 12 20 9 12 17 24 17 28 1 12 34
68 35 57 0 -5 7 4 16 20 9 17 22 40 29 52 6 13 15 20 18 16 4 -3 12 8 18 25 6
18 15 29 20 26 5 -3 9 -1 9 4 0 5 23 32 50 61 28 29 50 57 50 62 0 6 4 8 9 4
5 -3 17 5 25 17 9 12 16 19 16 15 0 -4 16 8 35 28 20 19 38 35 41 35 5 0 20
12 49 38 8 7 15 11 15 7 0 -4 7 0 15 7 34 31 43 36 49 31 3 -4 6 -1 6 5 0 7 6
12 14 12 8 0 21 6 28 13 18 17 105 57 124 57 8 0 12 5 9 10 -3 6 1 11 9 11 24
2 29 4 51 16 11 6 28 9 38 8 9 -2 15 1 11 6 -3 5 5 9 18 9 13 0 29 5 36 12 9
9 12 9 12 -2 0 -13 2 -13 10 0 5 8 25 15 45 15 20 1 40 6 43 11 4 5 21 9 37 9
17 0 38 3 48 8 11 5 17 4 17 -5 0 -9 3 -10 8 -2 4 6 15 10 25 8 9 -1 17 1 17
5 0 4 10 7 23 6 18 -2 23 4 27 34 3 20 3 59 2 88 l-4 52 -106 -5 c-131 -6
-132 -6 -132 -14 0 -3 -15 -6 -32 -5 -18 1 -44 -4 -58 -11 -14 -6 -35 -10 -47
-8 -13 2 -23 -1 -23 -6 0 -6 -8 -10 -18 -10 -10 0 -23 -5 -30 -12 -7 -7 -12
-9 -12 -6 0 4 -20 -2 -45 -13 -25 -11 -51 -17 -58 -13 -6 4 -9 4 -5 -1 4 -4
-29 -27 -75 -49 -45 -23 -83 -44 -85 -48 -2 -5 -10 -8 -18 -8 -8 0 -17 -6 -20
-14 -3 -8 -14 -13 -25 -11 -11 2 -17 0 -14 -6 4 -5 -2 -12 -12 -16 -19 -7 -32
-16 -64 -45 -10 -10 -19 -16 -19 -13 0 5 -32 -21 -82 -67 -17 -16 -35 -25 -42
-21 -6 3 -8 3 -4 -2 4 -4 -14 -28 -40 -53 -26 -26 -46 -50 -45 -54 2 -4 -4 -8
-12 -8 -8 0 -15 -6 -15 -13 0 -6 -13 -25 -30 -40 -16 -16 -30 -35 -30 -43 0
-9 -5 -12 -10 -9 -5 3 -10 0 -10 -8 0 -8 -7 -18 -16 -21 -8 -3 -12 -10 -9 -16
3 -5 2 -10 -3 -10 -5 0 -17 -16 -28 -35 -10 -19 -23 -35 -27 -35 -5 0 -7 -6
-4 -14 3 -8 -1 -17 -10 -20 -9 -4 -13 -13 -9 -22 3 -8 2 -13 -3 -10 -4 3 -16
-12 -26 -34 -10 -22 -22 -40 -27 -40 -4 0 -7 -3 -7 -7 1 -5 1 -10 -1 -13 -1
-3 -4 -16 -6 -30 -3 -14 -9 -26 -14 -28 -6 -2 -10 -12 -10 -22 0 -10 -4 -21
-10 -25 -5 -3 -6 -13 -3 -22 4 -10 2 -14 -4 -10 -6 4 -13 -6 -17 -26 -7 -40
-10 -49 -17 -62 -4 -5 -5 -18 -4 -27 2 -10 -1 -18 -5 -18 -5 0 -12 -21 -16
-47 -9 -53 -11 -62 -13 -65 -2 -2 -5 -21 -7 -42 -3 -21 -10 -48 -15 -59 -8
-15 -8 -18 1 -12 9 5 9 2 2 -11 -5 -11 -8 -40 -8 -66 1 -27 -1 -48 -4 -48 -4
0 -4 -14 -2 -31 3 -20 0 -34 -9 -40 -9 -5 -9 -9 -2 -9 6 0 10 -13 9 -30 -1
-16 3 -32 8 -34 7 -3 6 -5 -1 -5 -7 -1 -10 -7 -8 -13 3 -7 7 -44 9 -83 2 -38
5 -70 6 -70 3 0 11 -53 19 -128 1 -5 5 -5 11 -2 6 3 7 -1 4 -10 -4 -8 -1 -22
6 -30 10 -12 10 -15 0 -15 -9 0 -10 -3 -1 -13 6 -8 13 -24 15 -38 3 -13 5 -26
6 -29 2 -3 2 -8 1 -12 0 -5 3 -8 9 -8 6 0 9 -3 9 -8 -4 -22 2 -42 11 -37 5 3
7 0 4 -8 -3 -8 0 -18 5 -22 6 -3 9 -11 6 -16 -4 -5 -1 -9 4 -9 6 0 11 -7 11
-16 0 -19 60 -136 75 -146 6 -5 6 -8 0 -8 -7 0 -7 -3 0 -8 6 -4 21 -27 34 -52
25 -47 80 -123 93 -128 5 -2 8 -10 8 -18 0 -8 5 -14 10 -14 6 0 10 -7 10 -15
0 -8 7 -15 15 -15 8 0 15 -4 15 -10 0 -5 11 -20 25 -34 14 -14 25 -28 25 -31
0 -3 28 -32 61 -63 34 -31 72 -67 85 -79 13 -13 26 -23 29 -23 6 0 16 -7 59
-44 15 -14 37 -28 47 -31 11 -4 17 -11 13 -16 -3 -5 -2 -9 3 -8 12 4 67 -24
79 -40 6 -8 16 -11 21 -8 6 4 13 1 16 -6 3 -7 23 -19 46 -27 23 -7 41 -17 41
-22 0 -5 4 -7 9 -3 5 3 17 -2 25 -11 9 -8 16 -13 16 -10 0 4 16 0 35 -8 19 -8
35 -13 35 -10 0 2 11 -3 25 -12 13 -8 29 -13 34 -10 5 4 13 1 16 -5 4 -5 14
-8 22 -5 8 3 11 1 8 -4 -3 -6 2 -10 12 -11 10 0 27 -3 38 -5 11 -2 28 -5 38
-6 9 -1 17 -5 17 -8 0 -3 12 -6 28 -7 28 -2 77 -10 77 -13 0 -2 26 -4 141 -13
28 -2 56 -7 62 -11 6 -3 13 -2 17 4 4 6 12 7 18 3 15 -9 45 -10 80 -1 18 4 27
3 27 -5 0 -7 4 -6 10 3 9 13 10 13 10 0 0 -9 3 -11 8 -5 4 6 18 11 32 12 106
9 132 13 151 23 17 10 20 9 14 -1 -6 -9 -4 -10 6 -3 8 5 25 9 39 10 14 0 35 6
47 12 12 7 33 13 47 14 15 1 26 5 26 9 0 3 7 6 15 7 8 1 22 3 30 4 8 1 15 4
15 8 0 4 6 7 13 8 20 1 84 27 99 40 8 6 18 9 21 6 3 -4 13 1 22 10 9 9 20 14
25 11 4 -3 11 2 14 11 3 8 10 13 14 10 5 -3 25 6 44 19 20 13 38 21 42 18 3
-3 8 2 12 11 3 9 12 16 19 16 7 0 18 7 25 15 6 8 15 13 18 12 4 -1 18 8 32 20
14 12 29 24 35 25 5 2 19 12 30 23 30 28 64 55 70 55 11 0 173 169 168 174 -4
3 -1 6 4 6 12 0 88 98 88 115 1 5 6 9 13 8 10 -3 16 8 14 28 -1 3 10 18 24 34
13 15 24 34 24 42 0 7 5 13 11 13 5 0 7 5 4 10 -3 6 1 13 10 16 9 4 14 13 11
20 -3 8 -2 14 3 14 8 0 17 21 26 58 2 8 12 20 22 29 10 8 11 11 3 7 -12 -7
-13 -5 -3 8 7 8 10 18 6 21 -3 4 -1 7 6 7 7 0 9 5 6 10 -3 6 -2 10 2 10 5 0 9
8 10 18 1 9 9 35 19 57 17 40 21 51 28 90 3 11 9 35 15 54 6 19 8 37 6 41 -3
4 2 13 10 20 8 7 12 16 9 21 -7 11 -24 10 226 13 233 2 276 -4 260 -34 -7 -13
-7 -21 0 -25 7 -4 7 -13 0 -26 -6 -10 -8 -19 -4 -19 3 0 1 -7 -6 -15 -7 -8 -9
-15 -5 -15 4 0 2 -7 -5 -15 -10 -12 -10 -15 0 -15 9 0 10 -4 2 -13 -6 -7 -16
-35 -22 -62 -6 -27 -16 -53 -23 -57 -9 -6 -9 -8 1 -8 8 0 10 -5 5 -13 -4 -6
-8 -14 -9 -17 0 -3 -6 -18 -12 -33 -7 -16 -12 -37 -12 -48 0 -10 -4 -19 -9
-19 -5 0 -12 -16 -15 -35 -4 -20 -11 -33 -15 -31 -5 3 -7 -6 -5 -19 1 -14 -2
-25 -7 -25 -5 0 -9 -9 -9 -20 0 -11 -4 -20 -10 -20 -5 0 -10 -7 -10 -15 0 -8
-11 -35 -25 -60 -14 -25 -22 -45 -19 -45 4 0 -2 -10 -14 -23 -12 -13 -19 -27
-15 -30 3 -4 1 -7 -5 -7 -7 0 -12 -7 -12 -15 0 -8 -4 -15 -10 -15 -5 0 -10 -6
-10 -14 0 -7 -9 -25 -20 -38 -10 -14 -16 -28 -13 -32 3 -3 -2 -6 -12 -6 -10 0
-15 -3 -12 -6 10 -11 -13 -45 -25 -38 -6 4 -8 3 -5 -3 4 -6 0 -16 -8 -23 -8
-7 -15 -18 -15 -25 0 -7 -7 -15 -15 -19 -8 -3 -15 -12 -15 -21 0 -8 -7 -15
-17 -15 -9 0 -14 -3 -10 -6 6 -7 0 -15 -50 -69 -17 -18 -29 -36 -25 -39 3 -3
0 -6 -7 -6 -12 0 -42 -24 -38 -31 1 -2 -12 -18 -30 -36 -18 -17 -33 -29 -33
-27 0 2 -10 -6 -22 -18 -13 -13 -22 -26 -21 -30 2 -5 0 -7 -5 -6 -11 4 -53
-28 -45 -35 3 -4 -1 -7 -9 -7 -9 0 -19 -7 -22 -16 -4 -9 -9 -15 -12 -12 -3 3
-15 -3 -27 -13 -66 -57 -83 -69 -95 -69 -7 0 -10 -5 -7 -10 3 -5 -3 -10 -14
-10 -12 0 -21 -5 -21 -11 0 -5 -3 -8 -7 -6 -10 6 -34 -19 -26 -27 3 -3 -4 -3
-16 -1 -12 2 -19 0 -16 -6 4 -5 -1 -9 -9 -9 -9 0 -16 -3 -16 -7 0 -5 -18 -17
-40 -27 -22 -11 -40 -23 -40 -28 0 -5 -5 -6 -10 -3 -6 3 -24 -4 -41 -15 -16
-12 -41 -23 -55 -24 -13 0 -24 -7 -24 -15 0 -8 -6 -11 -15 -7 -8 3 -15 1 -15
-5 0 -6 -4 -7 -10 -4 -5 3 -10 1 -10 -5 0 -6 -4 -9 -9 -5 -5 3 -12 1 -16 -5
-4 -6 -11 -8 -16 -5 -5 4 -9 1 -9 -6 0 -7 -3 -9 -6 -6 -4 3 -16 1 -28 -5 -11
-7 -25 -11 -30 -10 -4 2 -14 -3 -22 -9 -8 -6 -14 -8 -14 -4 0 4 -7 2 -15 -5
-8 -7 -24 -10 -35 -7 -11 3 -18 1 -14 -4 3 -5 -4 -9 -15 -9 -11 0 -22 -4 -25
-8 -2 -4 -17 -7 -33 -6 -15 0 -31 -3 -34 -8 -3 -4 -23 -9 -45 -11 -21 -1 -42
-6 -45 -10 -3 -5 -35 -10 -70 -13 -35 -2 -77 -7 -94 -10 -50 -9 -459 -12 -477
-2 -10 5 -19 4 -24 -3 -5 -8 -8 -8 -13 0 -4 6 -30 13 -57 15 -27 2 -57 7 -66
10 -9 4 -37 8 -62 9 -25 1 -48 7 -50 14 -3 6 -16 10 -30 9 -14 -2 -26 1 -26 6
0 5 -4 7 -9 3 -5 -3 -12 -1 -15 4 -3 4 -18 9 -33 9 -15 0 -29 4 -31 10 -2 6
-9 9 -17 6 -7 -3 -16 0 -20 5 -3 6 -11 9 -16 6 -5 -4 -9 -1 -9 5 0 6 -6 10
-12 9 -7 -1 -26 4 -43 11 -16 7 -33 13 -37 12 -5 -1 -8 2 -8 7 0 5 -8 8 -17 7
-9 -2 -24 3 -32 11 -9 7 -19 12 -22 11 -4 -2 -16 6 -28 16 -12 11 -21 16 -21
11 0 -4 -8 -1 -17 6 -15 12 -16 12 -8 -1 4 -8 -2 -5 -14 7 -12 13 -33 26 -46
29 -14 3 -25 10 -25 15 0 5 -9 9 -21 9 -11 0 -18 4 -15 8 3 5 -10 15 -29 22
-19 8 -35 18 -35 22 0 5 -5 6 -10 3 -6 -3 -13 1 -16 9 -3 9 -10 13 -15 10 -5
-3 -9 -2 -9 3 0 4 -23 23 -50 42 -28 19 -50 38 -50 43 0 4 -6 8 -14 8 -17 0
-66 45 -66 62 0 9 -3 9 -10 -2 -9 -13 -14 -7 -11 13 0 4 -6 7 -15 7 -8 0 -12
4 -9 10 3 5 1 10 -4 10 -16 0 -198 189 -245 254 -11 15 -30 39 -42 53 -12 14
-28 38 -36 52 -7 14 -21 33 -30 42 -10 9 -18 19 -18 22 0 4 -18 36 -40 72 -22
36 -40 69 -40 73 0 4 -6 14 -12 21 -7 6 -13 15 -14 19 -2 15 -18 48 -31 64 -8
9 -12 21 -9 27 3 5 -1 16 -9 24 -8 9 -15 20 -15 25 0 5 -7 23 -16 40 -8 18
-12 37 -8 43 4 8 3 9 -4 5 -11 -6 -18 19 -13 47 0 4 -3 7 -8 7 -8 0 -26 66
-23 83 1 4 -2 7 -6 7 -4 0 -9 12 -10 26 -1 15 -6 32 -10 38 -4 6 -9 27 -11 46
-2 19 -6 40 -9 45 -4 6 -7 20 -8 33 0 12 -4 25 -7 29 -4 3 -2 12 4 20 9 10 8
13 0 13 -7 0 -9 5 -6 10 4 6 2 16 -3 23 -5 7 -10 38 -11 70 0 33 -3 63 -7 68
-3 5 1 9 8 9 8 0 9 3 3 8 -6 4 -10 17 -9 30 1 12 -3 22 -9 22 -5 0 -4 6 2 14
7 8 8 17 3 20 -11 7 -10 75 1 93 4 6 3 15 -3 18 -8 5 -7 11 1 21 6 8 7 14 2
14 -5 0 -10 7 -10 15 0 8 5 15 10 15 5 0 4 6 -2 13 -6 8 -8 16 -5 19 7 8 13
50 17 129 2 36 7 71 11 77 4 7 4 17 1 22 -3 6 -1 10 5 10 6 0 8 11 6 25 -3 14
-1 25 3 25 4 0 8 6 8 13 1 30 15 102 21 107 7 5 12 27 15 63 1 9 5 17 9 17 4
0 7 3 7 8 -4 25 2 52 11 47 6 -4 10 -3 9 2 -5 27 2 53 12 47 7 -4 10 -1 7 7
-3 8 1 27 9 42 8 16 12 35 9 42 -3 9 0 12 9 9 10 -4 13 0 10 15 -2 12 3 25 13
30 9 5 15 11 13 13 -8 6 11 48 21 48 6 0 8 3 5 7 -4 3 0 17 8 30 9 13 12 23 8
23 -5 0 -3 4 2 8 6 4 19 24 30 45 11 20 23 37 28 37 4 0 6 4 3 9 -3 5 1 14 9
21 8 7 15 19 15 26 0 8 5 14 10 14 6 0 10 7 10 15 0 8 5 15 10 15 6 0 10 7 10
15 0 9 7 18 15 21 8 4 13 10 10 15 -3 4 4 13 16 19 11 7 18 14 15 17 -3 3 6
17 20 30 14 12 23 23 20 23 -6 0 -4 3 69 85 25 27 45 54 45 58 0 5 5 5 10 2 6
-3 10 2 10 11 0 10 3 15 6 12 3 -3 21 11 41 31 19 20 40 35 45 33 5 -1 7 1 4
6 -6 10 17 31 56 51 15 8 25 17 23 21 -5 7 46 48 66 52 6 2 25 15 41 31 16 15
36 27 44 27 8 0 13 4 10 9 -4 7 35 31 54 33 3 1 10 8 17 17 6 9 15 13 19 9 4
-5 13 1 21 12 8 11 19 20 25 20 6 0 20 8 31 18 15 12 19 13 13 2 -4 -8 0 -6 9
5 9 11 17 19 18 17 3 -5 41 11 47 20 3 4 16 9 29 11 12 2 26 9 30 16 5 7 12
12 17 12 16 -1 74 23 74 30 0 4 11 6 25 4 14 -1 25 1 25 5 0 7 12 11 63 25 4
2 9 4 12 5 3 1 10 4 15 5 6 1 11 3 13 5 4 3 41 11 57 12 8 0 21 5 27 10 7 6
29 11 50 13 21 2 40 4 43 5 3 2 8 2 13 1 4 0 7 3 7 8 0 5 17 9 38 9 20 0 42 1
47 2 6 1 13 2 18 1 4 0 7 2 7 7 0 6 52 13 117 15 12 1 20 4 17 8 -2 4 12 8 31
8 19 1 41 2 49 3 11 1 15 22 18 90 3 85 2 89 -20 95 -12 3 -30 -1 -39 -8 -9
-8 -14 -9 -10 -3 5 8 -2 11 -19 10 -14 0 -28 -3 -31 -6z"/>
<path d="M4027 4384 c-2 -3 -15 -7 -28 -9 -49 -9 -109 -30 -109 -37 0 -4 -7
-8 -15 -8 -8 0 -15 -4 -15 -10 0 -5 -5 -10 -12 -10 -6 0 -27 -17 -47 -39 -48
-51 -72 -81 -66 -81 3 0 -2 -11 -11 -25 -9 -14 -12 -25 -8 -25 5 0 3 -4 -4 -8
-19 -12 -37 -192 -19 -192 5 0 5 -5 1 -11 -8 -14 45 -139 59 -139 6 0 8 -3 4
-6 -8 -9 84 -105 94 -98 5 3 9 0 9 -5 0 -6 7 -11 15 -11 8 0 15 -4 15 -10 0
-5 9 -10 19 -10 11 0 23 -5 26 -10 4 -6 12 -10 18 -9 23 3 38 -1 33 -9 -2 -4
32 -7 77 -6 86 1 182 28 213 58 8 9 19 16 24 16 13 0 90 83 90 98 0 6 5 12 12
12 6 0 9 3 5 6 -3 4 1 13 9 21 8 9 13 20 11 27 -2 6 3 17 11 25 7 8 12 25 9
38 -2 13 0 26 5 29 4 3 6 10 2 15 -3 5 -1 16 6 24 8 9 8 15 0 20 -6 4 -10 21
-10 38 2 38 -1 50 -23 101 -9 21 -17 42 -17 47 0 5 -4 9 -10 9 -5 0 -10 6 -10
13 0 7 -9 19 -19 27 -11 7 -18 17 -15 22 3 4 -2 8 -11 8 -9 0 -13 5 -10 10 3
6 0 10 -8 10 -8 0 -18 7 -21 16 -4 9 -9 14 -12 11 -4 -3 -15 3 -27 14 -11 10
-28 19 -36 19 -9 0 -24 7 -34 14 -9 7 -28 11 -42 8 -14 -2 -25 0 -25 4 0 5
-13 10 -30 10 -18 1 -27 -2 -23 -9 4 -6 1 -7 -8 -1 -17 10 -36 14 -42 8z m93
-179 c45 -2 145 -86 135 -113 -3 -7 0 -10 5 -7 10 6 13 -3 13 -37 0 -10 3 -18
7 -18 10 0 8 -20 -3 -37 -4 -6 -3 -15 3 -18 8 -5 7 -11 -1 -21 -6 -8 -9 -14
-5 -14 10 0 -23 -59 -51 -91 -15 -16 -32 -29 -40 -29 -7 0 -13 -4 -13 -9 0 -9
-61 -23 -105 -25 -11 -1 -35 4 -52 11 -18 7 -33 10 -33 7 0 -18 -90 78 -96
103 -4 13 -11 23 -16 23 -6 0 -8 6 -5 14 3 7 0 19 -6 25 -6 6 -7 11 -1 11 5 0
8 19 8 42 -1 24 5 48 13 56 8 8 12 19 10 25 -3 11 38 57 52 57 5 0 12 7 15 16
4 9 9 14 13 11 3 -4 12 -2 20 5 8 6 30 12 49 14 20 1 38 5 41 8 3 3 11 2 17
-2 6 -4 18 -7 26 -7z"/>
<path d="M3558 3562 c-24 -8 -47 -21 -51 -28 -5 -8 -12 -12 -18 -9 -5 4 -9 2
-9 -4 0 -5 -33 -43 -74 -84 -77 -76 -74 -75 -151 -62 -16 3 -55 8 -85 11 -30
3 -59 8 -65 12 -5 5 -29 8 -52 7 -24 0 -43 2 -43 5 0 3 -12 6 -27 5 -16 0 -31
3 -34 8 -10 14 -59 -22 -52 -39 3 -8 8 -12 12 -10 4 3 20 -6 36 -20 31 -27 40
-30 29 -11 -5 6 8 1 27 -13 18 -14 54 -34 79 -45 25 -11 47 -22 50 -25 3 -3
19 -12 36 -20 25 -12 29 -19 23 -35 -4 -11 -8 -16 -8 -11 -1 6 -12 -4 -24 -22
-13 -17 -27 -29 -30 -25 -4 3 -7 2 -7 -4 0 -6 -19 -30 -41 -53 -37 -38 -46
-43 -93 -44 -28 -1 -57 -5 -63 -9 -8 -5 -13 -3 -13 4 0 7 -8 5 -19 -7 -17 -18
-18 -28 -3 -30 4 0 20 -6 35 -12 15 -7 40 -15 55 -19 30 -7 65 -41 56 -54 -3
-5 0 -9 7 -9 7 0 9 -3 6 -7 -4 -3 0 -17 8 -29 10 -15 11 -25 4 -29 -6 -4 -1
-14 12 -26 17 -15 24 -16 30 -7 4 7 5 16 3 20 -3 4 1 8 8 8 9 0 9 3 -2 10 -8
5 -10 10 -4 10 5 0 9 14 8 30 -1 17 1 32 6 35 4 2 7 15 6 27 -1 14 9 34 26 50
15 15 28 25 28 22 0 -3 6 1 14 8 8 7 12 16 10 19 -2 3 8 11 22 18 14 6 22 16
19 21 -3 6 -1 10 6 10 6 0 18 8 25 18 9 11 13 13 14 4 0 -7 5 -10 10 -7 6 3
10 -3 10 -14 0 -12 5 -21 10 -21 6 0 9 -3 8 -7 -2 -14 32 -83 42 -83 5 0 7 -7
4 -15 -4 -8 -1 -15 7 -15 7 0 9 -3 6 -6 -4 -4 2 -19 13 -34 11 -15 17 -30 13
-33 -3 -4 1 -9 10 -13 9 -3 13 -12 10 -20 -3 -8 0 -14 6 -14 6 0 11 -7 11 -15
0 -22 21 -18 27 5 3 11 10 20 15 20 5 0 6 5 2 11 -3 6 -8 30 -10 52 -2 23 -6
56 -9 72 -3 17 -7 47 -10 68 -2 21 -7 42 -10 47 -3 5 0 12 6 16 7 4 8 9 1 13
-6 3 -13 34 -17 69 -5 47 -3 66 8 77 8 8 17 11 21 8 3 -4 6 -1 6 5 0 16 77 92
84 85 3 -4 6 0 6 8 1 8 14 25 30 39 17 13 30 30 30 38 0 7 6 25 13 40 18 36 8
75 -20 77 -12 1 -41 -5 -65 -13z"/>
<path d="M2345 3379 c6 -9 -15 -16 -42 -14 -13 1 -23 -2 -23 -7 0 -5 -4 -6
-10 -3 -5 3 -10 3 -10 -2 0 -4 -13 -9 -30 -10 -16 -1 -42 -10 -57 -20 -15 -10
-28 -17 -30 -16 -8 4 -43 -11 -43 -19 0 -5 -4 -7 -9 -3 -5 3 -17 -2 -25 -11
-9 -8 -16 -12 -16 -8 0 3 -6 1 -13 -5 -8 -6 -18 -7 -22 -3 -5 4 -6 2 -2 -4 3
-5 -10 -18 -29 -29 -19 -10 -34 -22 -34 -27 0 -4 -6 -8 -13 -8 -7 0 -19 -9
-27 -20 -8 -11 -20 -20 -27 -20 -7 0 -13 -7 -13 -15 0 -8 -7 -15 -16 -15 -8 0
-13 -4 -10 -9 3 -5 -6 -17 -19 -27 -14 -10 -25 -23 -25 -27 0 -14 -27 -37 -35
-29 -4 4 -5 3 -4 -3 4 -13 -32 -75 -44 -75 -4 0 -6 -4 -2 -9 3 -5 -2 -16 -10
-24 -8 -9 -15 -20 -15 -26 0 -6 -4 -11 -8 -11 -5 0 -9 -6 -10 -12 -2 -24 -27
-88 -34 -88 -4 0 -5 -7 -2 -15 4 -8 1 -15 -7 -15 -7 0 -9 -3 -6 -6 3 -4 2 -15
-3 -24 -5 -10 -11 -32 -12 -49 -1 -17 -5 -31 -8 -31 -7 0 -13 -72 -12 -133 0
-24 -3 -35 -10 -31 -7 5 -8 2 -2 -7 5 -8 10 -45 11 -84 3 -74 5 -94 14 -110 3
-5 6 -23 7 -38 1 -15 7 -37 12 -48 6 -11 8 -24 5 -29 -3 -6 -1 -10 5 -10 6 0
8 -4 5 -10 -3 -5 -1 -10 4 -10 6 0 11 -13 11 -30 0 -16 7 -33 16 -38 9 -5 15
-11 14 -13 -4 -8 44 -99 53 -99 4 0 5 -4 2 -10 -3 -5 -2 -10 2 -10 5 0 16 -13
25 -28 10 -16 33 -46 53 -67 19 -21 35 -43 35 -49 0 -5 3 -7 6 -3 3 3 21 -10
39 -29 18 -19 38 -34 45 -34 6 0 8 -5 5 -10 -3 -6 0 -10 8 -10 8 0 21 -7 28
-16 7 -9 22 -20 34 -25 11 -5 34 -18 50 -28 17 -11 38 -20 48 -20 9 -1 17 -6
17 -13 0 -6 3 -9 6 -5 3 3 24 -4 47 -16 22 -11 56 -22 76 -24 19 -2 40 -8 46
-12 5 -5 23 -9 39 -9 15 0 32 -6 37 -13 7 -12 9 -12 9 0 0 11 3 11 17 0 15
-12 16 -12 8 1 -7 12 -6 13 6 3 16 -13 186 -13 208 1 10 6 12 5 7 -2 -4 -7 -3
-12 3 -12 5 0 11 4 13 10 2 5 20 10 41 12 21 1 41 6 43 10 3 5 10 6 15 3 5 -4
9 -2 9 3 0 5 10 8 23 7 12 -1 27 2 33 6 6 5 21 10 33 12 13 2 26 8 29 13 4 5
12 9 17 10 22 1 75 27 75 36 0 5 4 7 9 3 5 -3 17 3 27 12 10 10 20 18 23 19
21 3 40 18 34 27 -4 6 0 8 10 4 10 -3 17 -2 17 4 0 5 11 14 24 20 13 6 30 22
37 35 7 13 17 24 23 24 14 0 52 42 48 53 -1 4 5 7 14 7 8 0 13 4 10 8 -3 5 3
16 12 25 27 25 42 45 42 57 0 5 5 10 11 10 5 0 7 5 4 10 -3 6 -2 10 3 10 5 0
15 14 22 30 7 17 17 30 22 30 5 0 6 5 3 10 -3 6 -1 10 5 10 6 0 8 4 5 10 -3 5
1 20 9 32 9 12 16 30 16 39 0 10 5 19 11 21 6 2 13 19 15 38 4 46 9 68 16 76
4 3 4 12 1 20 -3 8 -1 14 3 14 5 0 9 15 9 33 0 27 -4 32 -23 31 -12 0 -22 4
-22 9 0 5 -7 4 -15 -3 -11 -9 -15 -9 -15 -1 0 9 -5 9 -20 1 -15 -8 -20 -8 -20
1 0 8 -4 8 -15 -1 -8 -7 -15 -8 -15 -3 0 5 -7 10 -15 10 -8 0 -15 -4 -15 -9 0
-5 -4 -6 -10 -3 -10 6 -19 -22 -23 -72 -1 -18 -6 -33 -10 -33 -5 0 -5 -4 -2
-10 3 -5 1 -10 -5 -10 -7 0 -10 -7 -7 -15 4 -8 2 -17 -4 -21 -6 -3 -8 -12 -5
-20 3 -8 1 -14 -4 -14 -6 0 -10 -9 -10 -20 0 -11 -4 -20 -10 -20 -5 0 -10 -9
-10 -20 0 -11 -4 -20 -10 -20 -5 0 -10 -7 -10 -15 0 -8 -4 -15 -10 -15 -5 0
-10 -6 -10 -14 0 -8 -16 -30 -35 -50 -19 -20 -31 -36 -27 -36 4 -1 -6 -8 -21
-16 -15 -8 -25 -19 -22 -24 4 -6 0 -10 -8 -10 -8 0 -18 -7 -21 -16 -4 -9 -9
-14 -12 -11 -3 3 -16 -5 -29 -19 -12 -13 -26 -24 -30 -24 -4 0 -20 -9 -36 -21
-16 -11 -37 -22 -45 -23 -9 -1 -19 -8 -23 -15 -5 -7 -11 -12 -15 -11 -4 1 -16
0 -27 -3 -10 -3 -23 -6 -27 -7 -4 -1 -14 -6 -23 -11 -9 -5 -34 -11 -54 -13
-20 -3 -40 -7 -43 -10 -3 -3 -12 0 -20 7 -13 9 -14 9 -8 0 5 -9 -3 -13 -28
-14 -105 -4 -136 -3 -136 2 0 3 -13 5 -30 4 -16 -1 -30 1 -30 4 0 3 -12 7 -27
8 -25 1 -58 7 -73 13 -3 1 -8 2 -12 1 -5 0 -8 4 -8 11 0 6 -3 9 -6 5 -4 -3
-23 2 -44 13 -21 11 -40 16 -44 13 -3 -4 -6 -1 -6 5 0 6 -9 14 -20 17 -11 4
-18 10 -15 15 3 4 -2 7 -12 6 -9 -2 -32 13 -50 32 -18 18 -33 31 -33 28 0 -3
-20 15 -45 40 -25 24 -45 47 -45 50 0 3 -11 17 -25 31 -13 15 -29 40 -36 55
-6 15 -16 28 -21 28 -5 0 -6 10 -3 21 5 15 4 19 -4 15 -9 -6 -16 8 -8 17 1 2
-6 12 -16 22 -10 10 -16 26 -14 36 3 11 1 19 -3 19 -12 0 -33 97 -24 111 5 8
3 9 -6 4 -10 -6 -12 -1 -8 19 3 14 1 29 -4 32 -6 4 -5 10 3 15 8 5 9 9 3 9
-11 0 -11 106 0 117 3 4 1 12 -5 20 -9 10 -8 13 0 13 7 0 9 5 6 10 -3 6 -2 10
2 10 7 0 10 16 16 87 1 12 7 21 12 20 6 -1 9 4 7 11 -1 7 3 23 10 35 7 12 11
25 10 30 -1 4 3 7 9 7 5 0 8 4 4 10 -3 5 3 18 14 29 11 11 16 22 13 26 -4 4 1
11 11 16 9 6 17 16 17 23 0 8 14 28 30 46 17 18 41 46 55 62 14 16 25 27 25
24 0 -3 11 5 24 17 46 42 49 44 146 98 14 7 27 14 30 15 3 0 13 4 23 7 9 4 25
10 35 14 9 3 19 7 22 7 3 1 10 4 15 7 6 3 22 5 37 4 15 -1 25 2 22 7 -3 4 9 8
25 8 l31 0 0 99 c0 95 -1 100 -20 96 -11 -2 -25 -7 -30 -10 -6 -3 -10 -2 -10
3 0 5 -7 9 -15 9 -8 0 -12 -4 -10 -8z"/>
<path d="M2702 2763 c-33 -16 -82 -93 -59 -93 5 0 7 -3 4 -6 -16 -16 40 -84
68 -84 12 0 27 -6 34 -12 11 -10 13 -10 7 0 -4 7 -1 12 8 13 32 3 35 4 54 24
10 11 17 26 14 33 -2 6 1 12 6 12 5 0 9 14 8 30 0 17 -4 30 -8 30 -5 0 -8 6
-8 14 0 16 -34 40 -70 49 -15 4 -39 -1 -58 -10z"/>
<path d="M2483 2548 c-18 -11 -35 -29 -39 -41 -4 -12 -12 -25 -18 -29 -8 -6
-8 -8 1 -8 6 0 9 -9 6 -20 -3 -11 0 -20 6 -20 6 0 11 -9 11 -21 0 -11 5 -17
10 -14 6 3 10 2 10 -4 0 -18 86 -36 96 -19 3 4 10 6 15 3 5 -4 9 -2 9 4 0 5
10 13 21 16 14 5 18 10 10 14 -9 6 -8 11 3 20 8 7 13 21 10 32 -2 10 -6 29 -9
41 -5 22 -25 49 -25 33 0 -4 -8 1 -17 11 -24 25 -61 26 -100 2z"/>
<path d="M2285 2341 c-5 -13 -7 -14 -15 -1 -8 13 -10 12 -10 -2 0 -10 -4 -18
-10 -18 -5 0 -10 -7 -10 -16 0 -8 -4 -13 -9 -9 -6 3 -8 -4 -6 -15 2 -11 -2
-20 -8 -20 -8 0 -8 -3 1 -9 8 -4 13 -11 13 -15 -3 -19 13 -56 25 -56 8 0 14
-5 14 -11 0 -5 5 -7 10 -4 6 3 10 2 10 -3 0 -12 45 -8 82 6 30 12 43 29 43 57
0 11 4 26 9 34 5 8 4 16 -4 21 -6 4 -11 10 -11 14 3 19 -1 25 -19 31 -11 4
-18 11 -15 16 4 5 -4 10 -17 10 -13 1 -33 3 -45 4 -12 1 -25 -5 -28 -14z"/>
</g>
</svg>
